<?xml version="1.0" encoding="UTF-8"?><svg id="Capa_2" xmlns="http://www.w3.org/2000/svg" viewBox="0 0 229.02 243.06"><defs><style>.cls-1{stroke-width:0px;}</style></defs><g id="Capa_1-2"><path class="cls-1" d="M216.84,141.56l-23.28,6.55c-3.4.97-6.58,2.66-9.34,4.99l-24.92-15.42c3.5-10.4,3.5-21.77,0-32.16l24.92-15.42c2.76,2.32,5.94,4.02,9.34,4.99,0,0,24.92,6.88,25.71,6.88,2.28-.04,4.48-.95,6.18-2.57,1.7-1.62,2.8-3.84,3.1-6.25.3-2.41-.23-4.85-1.49-6.89-1.26-2.03-3.16-3.51-5.36-4.17l-23.27-6.56c-1.74-.49-3.23-1.7-4.14-3.36-.91-1.66-1.16-3.63-.7-5.49l6.16-24.77c.32-1.29.4-2.63.23-3.95-.17-1.32-.58-2.59-1.21-3.74-.63-1.15-1.46-2.16-2.46-2.97-.99-.81-2.13-1.4-3.34-1.74-1.21-.34-2.47-.42-3.71-.25-1.24.18-2.43.61-3.52,1.28-1.08.67-2.03,1.56-2.79,2.62-.76,1.06-1.31,2.27-1.63,3.55l-6.15,24.76c-.91,3.64-1.09,7.43-.55,11.15l-24.91,15.36c-6.76-8.18-15.82-13.81-25.83-16.05v-30.4c3.28-1.36,6.26-3.43,8.75-6.08l17.02-18.12c1.79-1.9,2.8-4.48,2.81-7.17,0-2.69-1-5.28-2.78-7.18C147.92,1.08,145.49,0,142.96,0c-2.53,0-4.96,1.06-6.75,2.96l-17.02,18.12c-1.28,1.35-3.01,2.1-4.81,2.1s-3.53-.76-4.81-2.1L92.55,2.96c-1.8-1.85-4.2-2.87-6.7-2.84-2.5.02-4.88,1.09-6.65,2.97-1.77,1.88-2.77,4.42-2.79,7.08-.02,2.66.94,5.22,2.67,7.13l17.02,18.17c2.49,2.65,5.47,4.72,8.75,6.08v30.4c-10.01,2.24-19.07,7.87-25.83,16.05l-24.91-15.42c.54-3.72.35-7.51-.55-11.15l-6.15-24.74c-.32-1.29-.88-2.49-1.63-3.55-.76-1.06-1.71-1.95-2.79-2.62-1.08-.67-2.28-1.1-3.52-1.28-1.24-.18-2.5-.09-3.71.25-1.21.34-2.34.93-3.34,1.74-.99.81-1.83,1.81-2.46,2.97-.63,1.15-1.04,2.42-1.21,3.74-.17,1.32-.09,2.66.23,3.95l6.16,24.76c.46,1.86.21,3.83-.7,5.49-.91,1.66-2.39,2.87-4.14,3.36l-23.27,6.6c-2.23.63-4.16,2.11-5.45,4.15-1.28,2.04-1.83,4.51-1.53,6.94.3,2.43,1.41,4.67,3.14,6.3,1.73,1.62,3.95,2.53,6.26,2.54.81,0,25.71-6.88,25.71-6.88,3.4-.97,6.58-2.66,9.34-4.99l24.92,15.42c-3.5,10.4-3.5,21.77,0,32.16l-24.9,15.38c-2.76-2.32-5.94-4.02-9.34-4.99l-23.28-6.55c-2.37-.49-4.83,0-6.87,1.36-2.05,1.37-3.53,3.51-4.15,5.99-.62,2.48-.33,5.13.82,7.39,1.14,2.26,3.05,3.98,5.34,4.8l23.27,6.56c1.74.49,3.23,1.7,4.14,3.36.91,1.66,1.16,3.63.7,5.49l-6.16,24.77c-.32,1.29-.4,2.63-.23,3.95.17,1.32.58,2.59,1.21,3.74.63,1.15,1.46,2.16,2.46,2.97.99.81,2.13,1.4,3.34,1.74,1.21.34,2.47.42,3.71.25,1.24-.18,2.43-.61,3.52-1.28,1.08-.67,2.03-1.56,2.79-2.62.76-1.06,1.31-2.27,1.63-3.55l6.15-24.76c.91-3.64,1.09-7.43.55-11.15l24.91-15.42c6.75,8.2,15.81,13.85,25.83,16.11v30.4c-3.28,1.37-6.26,3.43-8.75,6.08l-17.02,18.17c-1.73,1.91-2.69,4.47-2.67,7.13.02,2.66,1.02,5.2,2.79,7.08,1.77,1.88,4.15,2.94,6.65,2.97,2.5.02,4.9-1,6.7-2.84l17.07-18.12c1.28-1.35,3.01-2.1,4.81-2.1s3.53.76,4.81,2.1l17.02,18.12c1.8,1.85,4.2,2.87,6.7,2.84,2.5-.02,4.88-1.09,6.65-2.97,1.77-1.88,2.77-4.42,2.79-7.08.02-2.66-.94-5.22-2.67-7.13l-17.02-18.12c-2.5-2.67-5.5-4.76-8.8-6.13v-30.4c10.01-2.24,19.07-7.87,25.83-16.04l24.91,15.42c-.54,3.72-.35,7.51.55,11.15l6.15,24.77c.65,2.6,2.24,4.82,4.42,6.17,2.18,1.35,4.78,1.72,7.22,1.04,2.44-.69,4.53-2.38,5.8-4.7,1.27-2.32,1.62-5.09.97-7.69l-6.16-24.76c-.46-1.86-.21-3.83.7-5.49.91-1.66,2.39-2.87,4.14-3.36l23.27-6.56c1.24-.31,2.4-.89,3.42-1.69,1.02-.8,1.89-1.81,2.54-2.97.65-1.16,1.08-2.45,1.26-3.78.18-1.34.1-2.7-.22-4.01-.32-1.31-.89-2.53-1.67-3.6-.78-1.07-1.74-1.96-2.85-2.63-1.11-.67-2.32-1.09-3.59-1.24-1.26-.16-2.54-.04-3.76.33v-.03ZM114.38,151.99c-7.58,0-14.84-3.2-20.2-8.9-5.36-5.7-8.37-13.43-8.37-21.5s3.01-15.79,8.37-21.5c5.36-5.7,12.62-8.9,20.2-8.9s14.84,3.2,20.2,8.9c5.36,5.7,8.37,13.43,8.37,21.5s-3.01,15.79-8.37,21.5c-5.36,5.7-12.62,8.9-20.2,8.9Z"/></g></svg>