<?xml version="1.0" encoding="UTF-8"?><svg id="Capa_2" xmlns="http://www.w3.org/2000/svg" viewBox="0 0 243.36 160.61"><defs><style>.cls-1{stroke-width:0px;}</style></defs><g id="Capa_1-2"><path class="cls-1" d="M219.92,0H23.44C10.6,0,0,10.32,0,23.08v114.45c0,12.76,10.6,23.08,23.44,23.08h196.48c12.84,0,23.44-10.32,23.44-23.08V23.08c0-12.76-10.6-23.08-23.44-23.08ZM198.93,19.51l-77.25,48.97L44.43,19.51h154.49ZM86.62,69.8l35.06,22.33,35.06-22.14,53.81,71.3H33.22l53.4-71.49ZM173.65,58.92l49.32-31.33-.2,96.44-49.12-65.11ZM20.38,124.4V27.58l49.32,31.33L20.38,124.4Z"/></g></svg>