<?xml version="1.0" encoding="UTF-8"?><svg id="Capa_2" xmlns="http://www.w3.org/2000/svg" viewBox="0 0 243.36 240.75"><defs><style>.cls-1{stroke-width:0px;}</style></defs><g id="Capa_1-2"><path class="cls-1" d="M176.06,0h-108.54C30.34,0,0,30.49,0,68.05v95c0,42.88,34.61,77.69,77.13,77.69h91.66c41.02,0,74.57-33.63,74.57-75.14v-97.56C243.36,30.49,213.23,0,176.06,0ZM220.07,165.61c0,28.52-22.86,51.53-51.07,51.53h-91.87c-29.49,0-53.63-24.19-53.63-54.09v-95c0-24.59,19.66-44.45,44.01-44.45h108.33c24.36,0,44.01,19.87,44.01,44.45v97.56h.21Z"/><path class="cls-1" d="M121.79,59.6c-33.12,0-60.25,27.34-60.25,60.78s26.92,60.78,60.25,60.78,60.25-27.34,60.25-60.78-27.13-60.78-60.25-60.78ZM121.79,157.55c-20.3,0-36.75-16.72-36.75-37.17s16.45-37.17,36.75-37.17,36.75,16.72,36.75,37.17-16.45,37.17-36.75,37.17Z"/><path class="cls-1" d="M198.28,57.25c0,7.87-6.2,14.17-13.89,14.17s-13.89-6.3-13.89-14.17,6.2-14.17,13.89-14.17c7.69.2,13.89,6.49,13.89,14.17Z"/></g></svg>