<svg width="80" height="83" viewBox="0 0 80 83" fill="none" xmlns="http://www.w3.org/2000/svg">
<ellipse cx="40" cy="41.5" rx="39.8862" ry="41.5" fill="#E3D8C2"/>
<g clip-path="url(#clip0_634_2414)">
<path d="M62.4521 45.366L57.4744 46.7657C56.7473 46.9721 56.0676 47.3349 55.4773 47.8317L50.1494 44.534C50.8987 42.311 50.8987 39.88 50.1494 37.657L55.4773 34.3593C56.0676 34.8561 56.7473 35.2189 57.4744 35.4253C57.4744 35.4253 62.8023 36.8965 62.9713 36.8965C63.4597 36.8879 63.929 36.6926 64.2934 36.3464C64.6578 36.0001 64.8931 35.526 64.9563 35.0105C65.0195 34.4949 64.9064 33.9724 64.6377 33.5382C64.3689 33.1041 63.9625 32.7872 63.4924 32.6455L58.5168 31.2437C58.1442 31.1384 57.8261 30.8801 57.6322 30.5255C57.4383 30.1709 57.3845 29.7489 57.4826 29.3522L58.7998 24.0568C58.8682 23.7817 58.8851 23.4949 58.8494 23.2128C58.8137 22.9308 58.7261 22.6589 58.5917 22.4129C58.4573 22.1668 58.2786 21.9513 58.066 21.7787C57.8533 21.6062 57.6108 21.4798 57.3523 21.407C57.0938 21.3342 56.8243 21.3162 56.5592 21.3542C56.2942 21.3922 56.0388 21.4854 55.8076 21.6285C55.5764 21.7715 55.3739 21.9616 55.2117 22.1879C55.0496 22.4143 54.9309 22.6724 54.8624 22.9475L53.5473 28.2428C53.3537 29.0201 53.3135 29.8316 53.4292 30.6262L48.1034 33.9108C46.6586 32.1623 44.721 30.9584 42.5801 30.4788V23.9788C43.2814 23.6877 43.9184 23.245 44.451 22.6788L48.0912 18.8048C48.4742 18.3986 48.69 17.847 48.691 17.2714C48.6919 16.6959 48.478 16.1435 48.0962 15.7358C47.7145 15.328 47.1962 15.0984 46.6554 15.0974C46.1146 15.0964 45.5955 15.3241 45.2125 15.7303L41.5723 19.6043C41.2987 19.8925 40.9292 20.0542 40.5442 20.0542C40.1592 20.0542 39.7898 19.8925 39.5161 19.6043L35.876 15.7303C35.492 15.3357 34.9778 15.1173 34.444 15.1222C33.9102 15.1271 33.3996 15.355 33.0221 15.7567C32.6446 16.1584 32.4305 16.7019 32.4259 17.27C32.4212 17.8381 32.6264 18.3854 32.9973 18.794L36.6374 22.6788C37.17 23.245 37.807 23.6877 38.5084 23.9788V30.4788C36.3675 30.9584 34.4298 32.1623 32.9851 33.9108L27.6593 30.6132C27.775 29.8186 27.7348 29.0071 27.5412 28.2298L26.226 22.9388C26.1576 22.6637 26.0389 22.4056 25.8767 22.1793C25.7146 21.9529 25.5121 21.7628 25.2809 21.6198C25.0497 21.4767 24.7943 21.3836 24.5292 21.3456C24.2642 21.3076 23.9947 21.3255 23.7362 21.3983C23.4776 21.4712 23.2351 21.5975 23.0225 21.7701C22.8098 21.9427 22.6312 22.1581 22.4968 22.4042C22.3623 22.6503 22.2748 22.9221 22.2391 23.2042C22.2034 23.4862 22.2202 23.773 22.2887 24.0482L23.6059 29.3435C23.704 29.7403 23.6502 30.1622 23.4563 30.5169C23.2624 30.8715 22.9442 31.1297 22.5717 31.235L17.596 32.6455C17.1196 32.7812 16.7056 33.0963 16.4311 33.5323C16.1565 33.9683 16.04 34.4956 16.1032 35.0161C16.1664 35.5367 16.405 36.0151 16.7747 36.3626C17.1443 36.71 17.6199 36.9028 18.1131 36.9052C18.2862 36.9052 23.6099 35.434 23.6099 35.434C24.3371 35.2275 25.0168 34.8647 25.6071 34.368L30.935 37.6657C30.1857 39.8886 30.1857 42.3197 30.935 44.5427L25.6112 47.8317C25.0208 47.3349 24.3411 46.9721 23.614 46.7657L18.6363 45.366C18.1294 45.2611 17.604 45.365 17.1664 45.6569C16.7289 45.9488 16.4119 46.4067 16.2796 46.938C16.1474 47.4692 16.2098 48.0341 16.4542 48.5183C16.6986 49.0024 17.1068 49.3696 17.596 49.5455L22.5717 50.9473C22.9442 51.0526 23.2624 51.3109 23.4563 51.6655C23.6502 52.0201 23.704 52.4421 23.6059 52.8388L22.2887 58.1342C22.2202 58.4093 22.2034 58.6961 22.2391 58.9782C22.2748 59.2602 22.3623 59.5321 22.4968 59.7781C22.6312 60.0242 22.8098 60.2397 23.0225 60.4123C23.2351 60.5848 23.4776 60.7112 23.7362 60.784C23.9947 60.8568 24.2642 60.8748 24.5292 60.8368C24.7943 60.7988 25.0497 60.7056 25.2809 60.5625C25.5121 60.4195 25.7146 60.2294 25.8767 60.0031C26.0389 59.7767 26.1576 59.5186 26.226 59.2435L27.5412 53.9482C27.7348 53.1709 27.775 52.3594 27.6593 51.5648L32.9851 48.2672C34.4281 50.0205 36.3659 51.2291 38.5084 51.7122V58.2122C37.8074 58.5041 37.1705 58.9466 36.6374 59.5122L32.9973 63.397C32.6264 63.8056 32.4212 64.3529 32.4259 64.921C32.4305 65.4891 32.6446 66.0326 33.0221 66.4343C33.3996 66.836 33.9102 67.0639 34.444 67.0688C34.9778 67.0737 35.492 66.8553 35.876 66.4607L39.5263 62.5867C39.8 62.2985 40.1694 62.1368 40.5544 62.1368C40.9394 62.1368 41.3088 62.2985 41.5825 62.5867L45.2226 66.4607C45.6066 66.8553 46.1209 67.0737 46.6547 67.0688C47.1885 67.0639 47.6991 66.836 48.0765 66.4343C48.454 66.0326 48.6681 65.4891 48.6727 64.921C48.6774 64.3529 48.4722 63.8056 48.1013 63.397L44.4612 59.523C43.9261 58.9523 43.2855 58.506 42.5801 58.2122V51.7122C44.7207 51.2332 46.6583 50.03 48.1034 48.2823L53.4292 51.58C53.3135 52.3746 53.3537 53.1861 53.5473 53.9633L54.8624 59.2587C55.0007 59.8143 55.3406 60.2888 55.8076 60.5777C56.2745 60.8666 56.8302 60.9463 57.3523 60.7992C57.8744 60.6521 58.3202 60.2902 58.5917 59.7933C58.8632 59.2964 58.938 58.705 58.7998 58.1493L57.4826 52.854C57.3845 52.4572 57.4383 52.0353 57.6322 51.6807C57.8261 51.326 58.1442 51.0678 58.5168 50.9625L63.4924 49.5607C63.7566 49.4937 64.0055 49.3711 64.2244 49.2002C64.4434 49.0293 64.628 48.8135 64.7674 48.5655C64.9068 48.3175 64.9982 48.0423 65.0362 47.7562C65.0742 47.47 65.058 47.1787 64.9886 46.8993C64.9192 46.6199 64.798 46.3581 64.6321 46.1293C64.4662 45.9005 64.259 45.7094 64.0226 45.5671C63.7863 45.4249 63.5256 45.3343 63.2559 45.3009C62.9861 45.2675 62.7129 45.2918 62.4521 45.3725V45.366ZM40.5442 47.5955C38.9244 47.5955 37.3709 46.9107 36.2255 45.6917C35.0801 44.4727 34.4366 42.8194 34.4366 41.0955C34.4366 39.3716 35.0801 37.7183 36.2255 36.4993C37.3709 35.2803 38.9244 34.5955 40.5442 34.5955C42.1641 34.5955 43.7175 35.2803 44.8629 36.4993C46.0083 37.7183 46.6518 39.3716 46.6518 41.0955C46.6518 42.8194 46.0083 44.4727 44.8629 45.6917C43.7175 46.9107 42.1641 47.5955 40.5442 47.5955Z" fill="#02776D"/>
</g>
<defs>
<clipPath id="clip0_634_2414">
<rect width="48.8606" height="52" fill="white" transform="translate(16.1138 15.0969)"/>
</clipPath>
</defs>
</svg>
