<?xml version="1.0" encoding="UTF-8"?><svg id="Capa_2" xmlns="http://www.w3.org/2000/svg" viewBox="0 0 553.81 227.25"><defs><style>.cls-1{stroke-width:0px;}</style></defs><g id="Capa_1-2"><path class="cls-1" d="M51.37,199.12c.61,1.03,2.1,1.04,2.71.01l24.84-41.07c.3-.5.31-1.12.01-1.63l-8.64-14.58c-.67-1.13-2.3-1.14-2.99-.01l-24.7,40.85c-.3.5-.3,1.12,0,1.62l8.76,14.81Z"/><polyline class="cls-1" points="73.06 221.47 73.98 219.96 77.21 214.61 79.55 210.76 79.55 210.75 81.9 206.86 82.94 205.13 84.73 202.17"/><path class="cls-1" d="M83.2,169.33c.31-.52.88-.84,1.49-.84h11.51c.56,0,1.08.3,1.36.78l24.19,40.85c.3.5.29,1.13,0,1.63l-8.91,14.72c-.62,1.02-2.1,1.01-2.71-.02l-18.34-30.98c-.67-1.13-2.3-1.14-2.99-.01l-18.64,30.81c-.62,1.02-2.1,1.02-2.71-.01l-8.76-14.8c-.3-.5-.29-1.12,0-1.62l24.5-40.51Z"/><path class="cls-1" d="M207.75,193.64c.63,1.06-.14,2.36-1.35,2.36h-26.01c-1.2,0-1.97,1.35-1.35,2.41l6.94,11.75c.29.53.29,1.16,0,1.64l-8.91,14.69c-.58,1.01-2.07,1.01-2.7,0l-13.39-22.59c-.58-1.06-2.07-1.06-2.7,0l-13.58,22.45c-.63,1.01-2.12,1.01-2.7-.05l-8.77-14.79c-.29-.48-.29-1.11,0-1.59l15.37-25.38c.29-.48.29-1.11,0-1.59l-13.49-22.78c-.29-.48-.82-.77-1.35-.77h-7.37c-1.2,0-1.98,1.3-1.35,2.36l12.86,21.72c.29.48.29,1.11,0,1.64l-8.76,14.47c-.68,1.12-2.31,1.12-2.98-.01l-23.37-39.41c-.24-.48-.77-.77-1.35-.77h-8.35c-.61,0-1.18-.32-1.5-.85l-20.74-34.98c-.29-.48-.82-.82-1.35-.82-.58,0-1.11.29-1.4.77l-21.19,35.11c-.29.48-.82.77-1.35.77h-17.73c-1.25,0-1.98-1.35-1.35-2.41l19.27-31.84c.63-1.06-.14-2.41-1.35-2.41H1.75c-.96,0-1.75-.79-1.75-1.75v-14.77c0-.96.79-1.75,1.75-1.75h42.67c1.2,0,1.97-1.35,1.35-2.41l-19.27-31.79c-.63-1.06.1-2.41,1.35-2.41h17.73c.53,0,1.06.29,1.35.77l21.19,35.07c.29.48.82.77,1.4.77.53,0,1.06-.29,1.35-.77l20.74-34.98c.31-.53.88-.85,1.5-.85h8.35c.58,0,1.11-.29,1.35-.77l23.37-39.45c.67-1.13,2.31-1.14,2.99-.01l7.7,12.78,1.06,1.73c.29.48.29,1.11,0,1.59l-12.86,21.72c-.63,1.06.14,2.41,1.35,2.41h7.37c.53,0,1.06-.29,1.35-.77l13.49-22.78c.29-.48.29-1.11,0-1.64l-15.37-25.34c-.29-.48-.29-1.11,0-1.64l8.77-14.79c.58-1.01,2.07-1.01,2.7,0l13.58,22.45c.63,1.01,2.12,1.01,2.7,0L174.37.78c.63-1.01,2.12-1.06,2.7,0l8.91,14.69c.29.48.29,1.11,0,1.59l-6.94,11.8c-.63,1.06.14,2.36,1.35,2.36h26.01c1.2,0,1.97,1.35,1.35,2.41l-8.96,15.17c-.29.48-.82.77-1.35.77h-29.77c-.58,0-1.06.29-1.35.77l-20.81,35.07c-.24.48-.77.77-1.35.77h-40.75c-.58,0-1.06.29-1.35.77l-15.32,25.91c-.14.24-.19.48-.19.77,0,.24.05.53.19.77l15.32,25.87c.29.48.77.77,1.35.77h40.75c.58,0,1.11.29,1.35.77l20.81,35.11c.29.48.77.77,1.35.77h29.77c.53,0,1.06.29,1.35.77l8.96,15.17Z"/><polyline class="cls-1" points="131.08 196.3 132.98 193.16 136.83 186.81"/><path class="cls-1" d="M42.61,42.94c-.29.5-.29,1.12,0,1.62l24.7,40.85c.68,1.13,2.32,1.12,2.99-.01l8.64-14.58c.3-.5.29-1.13-.01-1.63l-24.84-41.07c-.62-1.02-2.1-1.02-2.71.01l-8.76,14.81Z"/><polyline class="cls-1" points="73.06 5.78 73.98 7.29 77.21 12.64 79.55 16.49 79.55 16.5 81.9 20.39 82.94 22.12 84.73 25.08"/><path class="cls-1" d="M83.2,57.92c.31.52.88.84,1.49.84h11.51c.56,0,1.08-.3,1.36-.78l24.19-40.85c.3-.5.29-1.13,0-1.63L112.83.78c-.62-1.02-2.1-1.01-2.71.02l-18.34,30.98c-.67,1.13-2.3,1.14-2.99.01L70.16.98c-.62-1.02-2.1-1.02-2.71.01l-8.76,14.8c-.3.5-.29,1.12,0,1.62l24.5,40.51Z"/><polyline class="cls-1" points="131.08 30.95 132.98 34.09 136.83 40.44"/><path class="cls-1" d="M226.58,117.55c-13.41,0-23.38-10.35-23.38-23.44v-.13c0-12.96,9.77-23.57,23.77-23.57,8.59,0,13.74,2.86,17.97,7.03l-6.38,7.36c-3.52-3.19-7.1-5.14-11.65-5.14-7.68,0-13.22,6.38-13.22,14.19v.13c0,7.81,5.4,14.32,13.22,14.32,5.21,0,8.4-2.08,11.98-5.34l6.38,6.45c-4.69,5.01-9.9,8.14-18.69,8.14Z"/><path class="cls-1" d="M287.2,116.76l-4.17-10.22h-19.27l-4.17,10.22h-10.22l19.53-45.9h9.25l19.53,45.9h-10.48ZM273.4,82.91l-6.06,14.78h12.11l-6.05-14.78Z"/><path class="cls-1" d="M321.59,117.09h-8.85l-18.43-45.9h11.07l11.92,32.1,11.92-32.1h10.81l-18.43,45.9Z"/><path class="cls-1" d="M347.51,116.76v-45.58h10.03v45.58h-10.03Z"/><path class="cls-1" d="M402.86,116.76l-4.17-10.22h-19.27l-4.17,10.22h-10.22l19.53-45.9h9.25l19.53,45.9h-10.48ZM389.06,82.91l-6.06,14.78h12.11l-6.05-14.78Z"/><path class="cls-1" d="M448.9,116.76v-18.3h-18.49v18.3h-10.03v-45.58h10.03v18.04h18.49v-18.04h10.03v45.58h-10.03Z"/><path class="cls-1" d="M488.88,117.48c-12.24,0-19.73-6.84-19.73-20.25v-26.05h10.03v25.78c0,7.42,3.71,11.26,9.83,11.26s9.83-3.71,9.83-10.94v-26.11h10.03v25.72c0,13.8-7.75,20.58-19.99,20.58Z"/><path class="cls-1" d="M519.1,116.76v-45.58h34.38v8.92h-24.42v9.25h21.49v8.92h-21.49v9.57h24.74v8.92h-34.7Z"/><path class="cls-1" d="M208.56,157.01c-1.71,0-3.43-.6-4.78-1.8l1.46-1.75c1.01.84,2.08,1.37,3.36,1.37,1.01,0,1.63-.4,1.63-1.06v-.03c0-.63-.39-.95-2.27-1.43-2.27-.58-3.73-1.21-3.73-3.44v-.03c0-2.05,1.64-3.4,3.94-3.4,1.64,0,3.04.52,4.18,1.43l-1.29,1.87c-1-.69-1.98-1.11-2.93-1.11s-1.45.43-1.45.98v.03c0,.74.48.98,2.43,1.48,2.29.6,3.57,1.42,3.57,3.38v.03c0,2.24-1.71,3.49-4.14,3.49Z"/><path class="cls-1" d="M222.13,156.85l-3.49-4.8-1.3,1.35v3.44h-2.48v-11.27h2.48v4.93l4.57-4.93h2.99l-4.59,4.78,4.8,6.49h-2.98Z"/><path class="cls-1" d="M226.73,156.85v-11.27h2.48v11.27h-2.48Z"/><path class="cls-1" d="M243.7,156.85l-2.41-3.61h-1.95v3.61h-2.48v-11.27h5.15c2.66,0,4.25,1.4,4.25,3.72v.03c0,1.82-.98,2.96-2.41,3.49l2.75,4.02h-2.9ZM243.74,149.43c0-1.06-.74-1.61-1.95-1.61h-2.46v3.24h2.51c1.21,0,1.9-.64,1.9-1.59v-.03Z"/><path class="cls-1" d="M248.5,156.85v-11.27h8.5v2.21h-6.04v2.29h5.31v2.2h-5.31v2.37h6.12v2.2h-8.58Z"/><path class="cls-1" d="M263.29,157.01c-1.71,0-3.43-.6-4.78-1.8l1.46-1.75c1.01.84,2.08,1.37,3.36,1.37,1.01,0,1.63-.4,1.63-1.06v-.03c0-.63-.39-.95-2.27-1.43-2.27-.58-3.73-1.21-3.73-3.44v-.03c0-2.05,1.64-3.4,3.94-3.4,1.64,0,3.04.52,4.18,1.43l-1.29,1.87c-1-.69-1.98-1.11-2.93-1.11s-1.45.43-1.45.98v.03c0,.74.48.98,2.43,1.48,2.29.6,3.57,1.42,3.57,3.38v.03c0,2.24-1.71,3.49-4.14,3.49Z"/><path class="cls-1" d="M275.07,157.04c-3.48,0-5.97-2.59-5.97-5.8v-.03c0-3.2,2.53-5.83,6-5.83s5.97,2.59,5.97,5.79v.03c0,3.2-2.53,5.83-6,5.83ZM278.48,151.21c0-1.93-1.42-3.54-3.41-3.54s-3.38,1.58-3.38,3.51v.03c0,1.93,1.42,3.54,3.41,3.54s3.38-1.58,3.38-3.51v-.03Z"/><path class="cls-1" d="M290.12,156.85l-2.41-3.61h-1.95v3.61h-2.48v-11.27h5.15c2.66,0,4.25,1.4,4.25,3.72v.03c0,1.82-.98,2.96-2.41,3.49l2.75,4.02h-2.9ZM290.17,149.43c0-1.06-.74-1.61-1.95-1.61h-2.46v3.24h2.51c1.21,0,1.9-.64,1.9-1.59v-.03Z"/><path class="cls-1" d="M300.02,147.87v8.98h-2.48v-8.98h-3.43v-2.29h9.34v2.29h-3.43Z"/><path class="cls-1" d="M353.84,153.47h-1.88v3.38h-2.48v-11.27h4.6c2.69,0,4.31,1.59,4.31,3.9v.03c0,2.61-2.03,3.96-4.56,3.96ZM355.89,149.52c0-1.11-.77-1.71-2.01-1.71h-1.92v3.44h1.97c1.24,0,1.96-.74,1.96-1.71v-.03Z"/><path class="cls-1" d="M367.5,156.85l-1.03-2.53h-4.77l-1.03,2.53h-2.53l4.83-11.35h2.29l4.83,11.35h-2.59ZM364.08,148.48l-1.5,3.65h2.99l-1.5-3.65Z"/><path class="cls-1" d="M375.49,147.87v8.98h-2.48v-8.98h-3.43v-2.29h9.34v2.29h-3.43Z"/><path class="cls-1" d="M387.75,156.85l-1.03-2.53h-4.77l-1.03,2.53h-2.53l4.83-11.35h2.29l4.83,11.35h-2.59ZM384.34,148.48l-1.5,3.65h2.99l-1.5-3.65Z"/><path class="cls-1" d="M396.79,157.04c-3.51,0-5.92-2.46-5.92-5.8v-.03c0-3.2,2.5-5.83,5.91-5.83,2.03,0,3.25.55,4.43,1.55l-1.56,1.88c-.87-.73-1.64-1.14-2.95-1.14-1.8,0-3.23,1.59-3.23,3.51v.03c0,2.06,1.42,3.57,3.41,3.57.9,0,1.71-.22,2.33-.68v-1.61h-2.5v-2.14h4.89v4.89c-1.16.98-2.75,1.79-4.81,1.79Z"/><path class="cls-1" d="M409.46,157.04c-3.48,0-5.97-2.59-5.97-5.8v-.03c0-3.2,2.53-5.83,6-5.83s5.97,2.59,5.97,5.79v.03c0,3.2-2.53,5.83-6,5.83ZM412.87,151.21c0-1.93-1.42-3.54-3.41-3.54s-3.38,1.58-3.38,3.51v.03c0,1.93,1.42,3.54,3.41,3.54s3.38-1.58,3.38-3.51v-.03Z"/><path class="cls-1" d="M425.58,156.85l-5.46-7.16v7.16h-2.45v-11.27h2.29l5.28,6.94v-6.94h2.45v11.27h-2.11Z"/><path class="cls-1" d="M430.51,156.85v-11.27h2.48v11.27h-2.48Z"/><path class="cls-1" d="M444.19,156.85l-1.03-2.53h-4.77l-1.03,2.53h-2.53l4.83-11.35h2.29l4.83,11.35h-2.59ZM440.78,148.48l-1.5,3.65h2.99l-1.5-3.65Z"/><path class="cls-1" d="M461.75,156.85l-1.03-2.53h-4.77l-1.03,2.53h-2.53l4.83-11.35h2.29l4.83,11.35h-2.59ZM458.33,148.48l-1.5,3.65h2.99l-1.5-3.65Z"/><path class="cls-1" d="M472.92,156.85l-2.41-3.61h-1.95v3.61h-2.48v-11.27h5.15c2.66,0,4.25,1.4,4.25,3.72v.03c0,1.82-.98,2.96-2.41,3.49l2.75,4.02h-2.9ZM472.97,149.43c0-1.06-.74-1.61-1.95-1.61h-2.46v3.24h2.51c1.21,0,1.9-.64,1.9-1.59v-.03Z"/><path class="cls-1" d="M483.15,157.04c-3.51,0-5.92-2.46-5.92-5.8v-.03c0-3.2,2.5-5.83,5.91-5.83,2.03,0,3.25.55,4.43,1.55l-1.56,1.88c-.87-.73-1.64-1.14-2.95-1.14-1.8,0-3.23,1.59-3.23,3.51v.03c0,2.06,1.42,3.57,3.41,3.57.9,0,1.71-.22,2.33-.68v-1.61h-2.5v-2.14h4.89v4.89c-1.16.98-2.75,1.79-4.81,1.79Z"/><path class="cls-1" d="M490.35,156.85v-11.27h8.5v2.21h-6.04v2.29h5.31v2.2h-5.31v2.37h6.12v2.2h-8.58Z"/><path class="cls-1" d="M509.04,156.85l-5.46-7.16v7.16h-2.45v-11.27h2.29l5.28,6.94v-6.94h2.45v11.27h-2.11Z"/><path class="cls-1" d="M518.96,147.87v8.98h-2.48v-8.98h-3.43v-2.29h9.34v2.29h-3.43Z"/><path class="cls-1" d="M524.41,156.85v-11.27h2.48v11.27h-2.48Z"/><path class="cls-1" d="M537.61,156.85l-5.46-7.16v7.16h-2.45v-11.27h2.29l5.28,6.94v-6.94h2.45v11.27h-2.11Z"/><path class="cls-1" d="M550.81,156.85l-1.03-2.53h-4.77l-1.03,2.53h-2.53l4.83-11.35h2.29l4.83,11.35h-2.59ZM547.4,148.48l-1.5,3.65h2.99l-1.5-3.65Z"/><rect class="cls-1" x="203.2" y="130.84" width="350.6" height="3.95"/></g></svg>