<?xml version="1.0" encoding="UTF-8"?><svg id="Capa_2" xmlns="http://www.w3.org/2000/svg" viewBox="0 0 222.71 243.36"><defs><style>.cls-1{stroke-width:0px;}</style></defs><g id="Capa_1-2"><path class="cls-1" d="M55.01,213.23c.65,1.1,2.24,1.11,2.91.01l26.61-43.98c.33-.53.33-1.2.01-1.74l-9.25-15.61c-.72-1.21-2.47-1.22-3.2-.01l-26.45,43.74c-.32.53-.33,1.2-.01,1.73l9.38,15.86Z"/><polyline class="cls-1" points="78.24 237.17 79.22 235.55 82.69 229.82 85.19 225.7 85.19 225.68 87.7 221.52 88.82 219.67 90.74 216.5"/><path class="cls-1" d="M89.09,181.33c.34-.56.94-.9,1.59-.9h12.33c.6,0,1.15.32,1.46.83l25.91,43.75c.32.54.32,1.21,0,1.74l-9.54,15.76c-.66,1.09-2.25,1.08-2.9-.02l-19.64-33.17c-.72-1.21-2.47-1.22-3.2-.02l-19.96,32.99c-.66,1.1-2.25,1.09-2.9-.01l-9.38-15.85c-.32-.54-.31-1.2,0-1.73l26.24-43.38Z"/><path class="cls-1" d="M222.48,207.37c.67,1.13-.15,2.53-1.44,2.53h-27.85c-1.29,0-2.11,1.44-1.44,2.58l7.43,12.59c.31.57.31,1.24,0,1.75l-9.54,15.73c-.62,1.08-2.22,1.08-2.89,0l-14.34-24.19c-.62-1.13-2.22-1.13-2.89,0l-14.55,24.04c-.67,1.08-2.27,1.08-2.89-.05l-9.39-15.84c-.31-.52-.31-1.19,0-1.7l16.45-27.18c.31-.52.31-1.19,0-1.7l-14.44-24.4c-.31-.52-.88-.83-1.44-.83h-7.89c-1.29,0-2.12,1.39-1.44,2.53l13.77,23.26c.31.52.31,1.19,0,1.75l-9.38,15.5c-.73,1.2-2.48,1.2-3.2-.01l-25.03-42.2c-.26-.52-.83-.83-1.44-.83h-8.95c-.66,0-1.27-.35-1.6-.91l-22.21-37.46c-.31-.52-.88-.88-1.44-.88-.62,0-1.19.31-1.5.83l-22.7,37.6c-.31.52-.88.83-1.44.83h-18.98c-1.34,0-2.12-1.44-1.44-2.58l20.63-34.1c.67-1.13-.15-2.58-1.44-2.58H1.87c-1.03,0-1.87-.84-1.87-1.87v-15.81c0-1.03.84-1.87,1.87-1.87h45.69c1.29,0,2.11-1.44,1.44-2.58l-20.63-34.04c-.67-1.13.1-2.58,1.44-2.58h18.98c.57,0,1.13.31,1.44.83l22.7,37.55c.31.52.88.83,1.5.83.57,0,1.13-.31,1.44-.83l22.21-37.46c.34-.57.94-.91,1.6-.91h8.95c.62,0,1.19-.31,1.44-.83l25.03-42.25c.72-1.21,2.47-1.22,3.2-.01l8.24,13.68,1.13,1.86c.31.52.31,1.19,0,1.7l-13.77,23.26c-.67,1.13.15,2.58,1.44,2.58h7.89c.57,0,1.13-.31,1.44-.83l14.44-24.4c.31-.52.31-1.19,0-1.75l-16.45-27.13c-.31-.52-.31-1.19,0-1.75l9.39-15.84c.62-1.08,2.22-1.08,2.89,0l14.55,24.04c.67,1.08,2.27,1.08,2.89,0L186.73.83c.67-1.08,2.27-1.13,2.89,0l9.54,15.73c.31.52.31,1.19,0,1.7l-7.43,12.64c-.67,1.13.15,2.53,1.44,2.53h27.85c1.29,0,2.11,1.44,1.44,2.58l-9.59,16.25c-.31.52-.88.83-1.44.83h-31.88c-.62,0-1.13.31-1.44.83l-22.28,37.55c-.26.52-.83.83-1.44.83h-43.64c-.62,0-1.13.31-1.44.83l-16.4,27.75c-.15.26-.21.52-.21.83,0,.26.05.57.21.83l16.4,27.7c.31.52.83.83,1.44.83h43.64c.62,0,1.19.31,1.44.83l22.28,37.6c.31.52.83.83,1.44.83h31.88c.57,0,1.13.31,1.44.83l9.59,16.25Z"/><polyline class="cls-1" points="140.37 210.22 142.41 206.86 146.53 200.06"/><path class="cls-1" d="M45.63,45.98c-.32.54-.31,1.2.01,1.73l26.45,43.74c.73,1.2,2.48,1.2,3.2-.01l9.25-15.61c.32-.54.31-1.21-.01-1.74l-26.61-43.98c-.66-1.1-2.25-1.09-2.91.01l-9.38,15.86Z"/><polyline class="cls-1" points="78.24 6.19 79.22 7.81 82.69 13.54 85.19 17.66 85.19 17.67 87.7 21.84 88.82 23.69 90.74 26.85"/><path class="cls-1" d="M89.09,62.02c.34.56.94.9,1.59.9h12.33c.6,0,1.15-.32,1.46-.83l25.91-43.75c.32-.54.32-1.21,0-1.74L120.83.84c-.66-1.09-2.25-1.08-2.9.02l-19.64,33.17c-.72,1.21-2.47,1.22-3.2.02L75.13,1.05c-.66-1.1-2.25-1.09-2.9.01l-9.38,15.85c-.32.54-.31,1.2,0,1.73l26.24,43.38Z"/><polyline class="cls-1" points="140.37 33.14 142.41 36.5 146.53 43.3"/></g></svg>