<?xml version="1.0" encoding="UTF-8"?><svg id="Capa_2" xmlns="http://www.w3.org/2000/svg" viewBox="0 0 553.81 103.74"><defs><style>.cls-1{stroke-width:0px;}</style></defs><g id="Capa_1-2"><path class="cls-1" d="M23.45,90.89c.28.47.96.47,1.24,0l11.34-18.75c.14-.23.14-.51,0-.74l-3.94-6.65c-.31-.52-1.05-.52-1.36,0l-11.27,18.65c-.14.23-.14.51,0,.74l4,6.76Z"/><polyline class="cls-1" points="33.35 101.1 33.77 100.41 35.25 97.97 36.31 96.21 36.31 96.2 37.38 94.43 37.86 93.64 38.68 92.29"/><path class="cls-1" d="M37.98,77.3c.14-.24.4-.38.68-.38h5.26c.26,0,.49.13.62.35l11.04,18.65c.14.23.13.51,0,.74l-4.07,6.72c-.28.47-.96.46-1.24,0l-8.37-14.14c-.31-.52-1.05-.52-1.36,0l-8.51,14.06c-.28.47-.96.46-1.24,0l-4-6.75c-.13-.23-.13-.51,0-.74l11.18-18.49Z"/><path class="cls-1" d="M94.83,88.4c.29.48-.07,1.08-.62,1.08h-11.87c-.55,0-.9.62-.62,1.1l3.17,5.37c.13.24.13.53,0,.75l-4.07,6.71c-.26.46-.95.46-1.23,0l-6.11-10.31c-.26-.48-.95-.48-1.23,0l-6.2,10.25c-.29.46-.97.46-1.23-.02l-4-6.75c-.13-.22-.13-.51,0-.73l7.01-11.59c.13-.22.13-.51,0-.73l-6.16-10.4c-.13-.22-.37-.35-.62-.35h-3.36c-.55,0-.9.59-.62,1.08l5.87,9.92c.13.22.13.51,0,.75l-4,6.61c-.31.51-1.06.51-1.36,0l-10.67-17.99c-.11-.22-.35-.35-.62-.35h-3.81c-.28,0-.54-.15-.68-.39l-9.47-15.97c-.13-.22-.37-.37-.62-.37-.26,0-.51.13-.64.35l-9.67,16.03c-.13.22-.37.35-.62.35h-8.09c-.57,0-.9-.62-.62-1.1l8.8-14.53c.29-.48-.07-1.1-.62-1.1H.8c-.44,0-.8-.36-.8-.8v-6.74c0-.44.36-.8.8-.8h19.48c.55,0,.9-.62.62-1.1l-8.8-14.51c-.29-.48.04-1.1.62-1.1h8.09c.24,0,.48.13.62.35l9.67,16.01c.13.22.37.35.64.35.24,0,.48-.13.62-.35l9.47-15.97c.14-.24.4-.39.68-.39h3.81c.26,0,.51-.13.62-.35l10.67-18.01c.31-.52,1.05-.52,1.36,0l3.51,5.83.48.79c.13.22.13.51,0,.73l-5.87,9.92c-.29.48.07,1.1.62,1.1h3.36c.24,0,.48-.13.62-.35l6.16-10.4c.13-.22.13-.51,0-.75l-7.01-11.57c-.13-.22-.13-.51,0-.75l4-6.75c.26-.46.95-.46,1.23,0l6.2,10.25c.29.46.97.46,1.23,0L79.6.35c.29-.46.97-.48,1.23,0l4.07,6.71c.13.22.13.51,0,.73l-3.17,5.39c-.29.48.07,1.08.62,1.08h11.87c.55,0,.9.62.62,1.1l-4.09,6.93c-.13.22-.37.35-.62.35h-13.59c-.26,0-.48.13-.62.35l-9.5,16.01c-.11.22-.35.35-.62.35h-18.6c-.26,0-.48.13-.62.35l-6.99,11.83c-.07.11-.09.22-.09.35,0,.11.02.24.09.35l6.99,11.81c.13.22.35.35.62.35h18.6c.26,0,.51.13.62.35l9.5,16.03c.13.22.35.35.62.35h13.59c.24,0,.48.13.62.35l4.09,6.93Z"/><polyline class="cls-1" points="59.84 89.61 60.71 88.18 62.46 85.28"/><path class="cls-1" d="M19.45,19.6c-.13.23-.13.51,0,.74l11.27,18.65c.31.51,1.06.51,1.36,0l3.94-6.65c.14-.23.13-.51,0-.74l-11.34-18.75c-.28-.47-.96-.46-1.24,0l-4,6.76Z"/><polyline class="cls-1" points="33.35 2.64 33.77 3.33 35.25 5.77 36.31 7.53 36.31 7.53 37.38 9.31 37.86 10.1 38.68 11.45"/><path class="cls-1" d="M37.98,26.44c.14.24.4.38.68.38h5.26c.26,0,.49-.13.62-.35l11.04-18.65c.14-.23.13-.51,0-.74L51.51.36c-.28-.47-.96-.46-1.24,0l-8.37,14.14c-.31.52-1.05.52-1.36,0L32.03.45c-.28-.47-.96-.46-1.24,0l-4,6.75c-.13.23-.13.51,0,.74l11.18,18.49Z"/><polyline class="cls-1" points="59.84 14.13 60.71 15.56 62.46 18.46"/><path class="cls-1" d="M136.8,83.31c-17.09,0-29.79-13.19-29.79-29.87v-.17c0-16.51,12.45-30.04,30.29-30.04,10.95,0,17.51,3.65,22.9,8.96l-8.13,9.38c-4.48-4.07-9.04-6.56-14.85-6.56-9.79,0-16.84,8.13-16.84,18.09v.17c0,9.96,6.89,18.25,16.84,18.25,6.64,0,10.7-2.66,15.27-6.8l8.13,8.22c-5.97,6.39-12.61,10.37-23.81,10.37Z"/><path class="cls-1" d="M214.06,82.31l-5.31-13.03h-24.56l-5.31,13.03h-13.03l24.89-58.5h11.78l24.89,58.5h-13.36ZM196.47,39.16l-7.72,18.83h15.43l-7.72-18.83Z"/><path class="cls-1" d="M257.88,82.73h-11.28l-23.48-58.5h14.11l15.18,40.91,15.19-40.91h13.77l-23.48,58.5Z"/><path class="cls-1" d="M290.91,82.31V24.23h12.78v58.08h-12.78Z"/><path class="cls-1" d="M361.44,82.31l-5.31-13.03h-24.56l-5.31,13.03h-13.03l24.89-58.5h11.78l24.89,58.5h-13.36ZM343.85,39.16l-7.72,18.83h15.43l-7.72-18.83Z"/><path class="cls-1" d="M420.12,82.31v-23.32h-23.57v23.32h-12.78V24.23h12.78v22.98h23.57v-22.98h12.78v58.08h-12.78Z"/><path class="cls-1" d="M471.07,83.22c-15.6,0-25.14-8.71-25.14-25.81V24.23h12.78v32.86c0,9.46,4.73,14.35,12.53,14.35s12.53-4.73,12.53-13.94V24.23h12.78v32.78c0,17.59-9.87,26.22-25.47,26.22Z"/><path class="cls-1" d="M509.58,82.31V24.23h43.81v11.37h-31.12v11.78h27.38v11.37h-27.38v12.2h31.53v11.37h-44.23Z"/></g></svg>