<?xml version="1.0" encoding="utf-8"?>
<!-- Generator: Adobe Illustrator 25.0.0, SVG Export Plug-In . SVG Version: 6.00 Build 0)  -->
<svg version="1.1" id="Capa_1" xmlns="http://www.w3.org/2000/svg" xmlns:xlink="http://www.w3.org/1999/xlink" x="0px" y="0px"
	 viewBox="0 0 100.1 100.1" style="enable-background:new 0 0 100.1 100.1;" xml:space="preserve">
<style type="text/css">
	.st0{fill:#032A2D;}
	.st1{fill:#E3D8C2;}
</style>
<path class="st0" d="M92.2,100.3H8.1c-4.5,0-8.1-3.6-8.1-8.1V8.1C0,3.6,3.6,0,8.1,0h84c4.5,0,8.1,3.6,8.1,8.1v84
	C100.3,96.7,96.7,100.3,92.2,100.3z"/>
<g>
	<path class="st1" d="M30,81.7c0.2,0.4,0.7,0.4,0.9,0l8.6-14.2c0.2-0.2,0.2-0.4,0-0.6l-3-5.1c-0.2-0.4-0.7-0.4-1.1,0l-8.6,14.2
		c-0.2,0.2-0.2,0.4,0,0.6L30,81.7z"/>
	<polyline class="st1" points="37.7,89.4 37.9,89 39,87.1 39.9,85.6 39.9,85.6 40.7,84.3 41,83.8 41.6,82.6 	"/>
	<path class="st1" d="M41.2,71.2c0.2-0.2,0.4-0.4,0.6-0.4h3.9c0.2,0,0.4,0.2,0.6,0.2l8.4,14.2c0.2,0.2,0.2,0.4,0,0.6l-3.2,5.1
		c-0.2,0.4-0.7,0.4-0.9,0L44.2,80c-0.2-0.4-0.7-0.4-1.1,0l-6.6,10.7c-0.2,0.4-0.7,0.4-0.9,0l-3-5.2c-0.2-0.2-0.2-0.4,0-0.6
		L41.2,71.2z"/>
	<path class="st1" d="M84.5,79.8c0.2,0.4,0,0.7-0.6,0.7h-9c-0.4,0-0.7,0.6-0.6,0.7l2.4,4.1c0.2,0.2,0.2,0.4,0,0.6l-3.2,5.1
		c-0.2,0.4-0.7,0.4-0.9,0L68,83.2c-0.2-0.4-0.7-0.4-0.9,0l-4.7,7.9c-0.2,0.4-0.7,0.4-0.9,0l-3-5.2c-0.2-0.2-0.2-0.4,0-0.6l5.4-8.8
		c0.2-0.2,0.2-0.4,0-0.6L59.2,68c-0.2-0.2-0.4-0.2-0.6-0.2h-2.4c-0.4,0-0.7,0.4-0.6,0.7l4.5,7.5c0.2,0.2,0.2,0.4,0,0.6l-3,5.1
		c-0.2,0.4-0.7,0.4-1.1,0L48,68c0-0.2-0.2-0.2-0.6-0.2h-3c-0.2,0-0.4-0.2-0.6-0.4l-7.3-12.2c-0.2-0.2-0.4-0.4-0.6-0.4
		c-0.2,0-0.4,0.2-0.6,0.2l-6.9,12.4c-0.2,0.2-0.4,0.2-0.6,0.2h-6.2c-0.4,0-0.7-0.6-0.6-0.7l6.7-11.1c0.2-0.4,0-0.7-0.6-0.7H12.7
		c-0.4,0-0.6-0.2-0.6-0.6v-5.1c0-0.4,0.2-0.6,0.6-0.6h14.8c0.4,0,0.7-0.6,0.6-0.7l-6.7-11.1c-0.2-0.4,0-0.7,0.6-0.7h6.2
		c0.2,0,0.4,0.2,0.6,0.2L36,48.7c0.2,0.2,0.4,0.2,0.6,0.2s0.4-0.2,0.6-0.2l7.3-12.2c0.2-0.2,0.4-0.4,0.6-0.4h3
		c0.2,0,0.4-0.2,0.6-0.2l8.1-13.7c0.2-0.4,0.7-0.4,1.1,0l2.6,4.5l0.4,0.6c0.2,0.2,0.2,0.4,0,0.6l-4.5,7.5c-0.2,0.4,0,0.7,0.6,0.7
		h2.6c0.2,0,0.4-0.2,0.6-0.2l4.7-7.9c0.2-0.2,0.2-0.4,0-0.6l-5.4-8.8c-0.2-0.2-0.2-0.4,0-0.6l3-5.2c0.2-0.4,0.7-0.4,0.9,0l4.7,7.9
		c0.2,0.4,0.7,0.4,0.9,0l4.7-7.9c0.2-0.4,0.7-0.4,0.9,0l3.2,5.1c0.2,0.2,0.2,0.4,0,0.6l-2.4,4.1c-0.2,0.4,0,0.7,0.6,0.7h9
		c0.4,0,0.7,0.6,0.6,0.7l-3.2,5.2c-0.2,0.2-0.4,0.2-0.6,0.2H71.2c-0.2,0-0.4,0.2-0.6,0.2L63.3,42c0,0.2-0.2,0.2-0.6,0.2H48.5
		c-0.2,0-0.4,0.2-0.6,0.2l-5.2,9v0.2v0.2l5.2,9c0.2,0.2,0.2,0.2,0.6,0.2h14.2c0.2,0,0.4,0.2,0.6,0.2l7.3,12.2
		c0.2,0.2,0.2,0.2,0.6,0.2h10.3c0.2,0,0.4,0.2,0.6,0.2L84.5,79.8z"/>
	<polyline class="st1" points="57.9,80.8 58.5,79.6 59.8,77.4 	"/>
	<g>
		<path class="st1" d="M27,27.2c-0.2,0.2-0.2,0.4,0,0.6L35.6,42c0.2,0.4,0.7,0.4,1.1,0l3-5.1c0.2-0.2,0.2-0.4,0-0.6l-8.6-14.2
			c-0.2-0.4-0.7-0.4-0.9,0L27,27.2z"/>
		<polyline class="st1" points="37.7,14.2 37.9,14.8 39,16.7 39.9,18 39.9,18 40.7,19.3 41,20.1 41.6,21 		"/>
		<path class="st1" d="M41.2,32.4c0.2,0.2,0.4,0.4,0.6,0.4h3.9c0.2,0,0.4-0.2,0.6-0.2l8.4-14.2c0.2-0.2,0.2-0.4,0-0.6l-3.2-5.1
			c-0.2-0.4-0.7-0.4-0.9,0l-6.4,10.9c-0.2,0.4-0.7,0.4-1.1,0l-6.6-10.7c-0.2-0.4-0.7-0.4-0.9,0l-3,5.2c-0.2,0.2-0.2,0.4,0,0.6
			L41.2,32.4z"/>
		<polyline class="st1" points="57.9,23.1 58.5,24.2 59.8,26.4 		"/>
	</g>
</g>
</svg>
