<?xml version="1.0" encoding="UTF-8"?><svg id="Capa_2" xmlns="http://www.w3.org/2000/svg" viewBox="0 0 167.17 243.36"><defs><style>.cls-1{stroke-width:0px;}</style></defs><g id="Capa_1-2"><path class="cls-1" d="M83.71,243.36L8.6,123.05c-2.23-4.62-17.85-38.85-.56-76.84C25.89,6.67,66.05.86,82.41,0h2.23c16.55.68,56.7,6.67,74.55,46.21,17.1,38.16,1.67,72.22-.19,75.99l-75.29,121.17ZM83.71,20.54c-12.46.51-42.2,4.79-55.21,33.54-13.76,30.63-.56,58.53,0,59.73l55.21,88.31,55.77-89.33c0-.17,13.2-28.07-.56-58.87-12.83-28.58-42.76-33.03-54.84-33.54l-.37.17ZM85.01,128.53c-24.73,0-44.8-19.85-44.8-44.15s20.08-44.15,44.8-44.15,44.8,19.85,44.8,44.15-20.08,44.15-44.8,44.15ZM85.01,60.75c-12.46,0-22.49,10.61-22.49,23.62s10.04,23.62,22.49,23.62,22.49-10.61,22.49-23.62-10.22-23.62-22.49-23.62Z"/></g></svg>