<?xml version="1.0" encoding="UTF-8"?><svg id="Capa_2" xmlns="http://www.w3.org/2000/svg" viewBox="0 0 233.51 243.36"><defs><style>.cls-1{stroke-width:0px;}</style></defs><g id="Capa_1-2"><path class="cls-1" d="M223.78,111.54h-39.7c-.76-5.59-2.16-11.06-4.17-16.3l34.32-20.73c1.15-.64,2.16-1.52,2.97-2.58.82-1.06,1.42-2.28,1.77-3.58.36-1.31.46-2.67.3-4.02-.16-1.35-.58-2.65-1.23-3.82-.65-1.18-1.52-2.2-2.56-3.02-1.04-.82-2.23-1.41-3.49-1.74-1.26-.33-2.58-.39-3.86-.19-1.29.21-2.52.68-3.63,1.4l-34.35,20.76c-3.28-4.32-7.03-8.24-11.18-11.66l19.91-35.8c1.2-2.32,1.48-5.04.79-7.57-.69-2.54-2.3-4.69-4.49-6.01-2.19-1.32-4.79-1.7-7.24-1.05-2.45.64-4.57,2.26-5.9,4.5l-19.92,35.74c-5.02-2.1-10.27-3.56-15.64-4.35V10.14c0-2.69-1.02-5.27-2.85-7.17-1.82-1.9-4.3-2.97-6.88-2.97s-5.06,1.07-6.88,2.97c-1.82,1.9-2.85,4.48-2.85,7.17v41.37c-5.36.79-10.61,2.25-15.64,4.35l-19.89-35.76c-1.33-2.24-3.45-3.86-5.9-4.5-2.45-.64-5.05-.27-7.24,1.05-2.19,1.32-3.8,3.47-4.49,6.01-.69,2.54-.41,5.25.79,7.57l19.91,35.82c-4.14,3.43-7.9,7.34-11.18,11.66l-34.35-20.76c-1.11-.71-2.34-1.19-3.63-1.4-1.29-.21-2.6-.14-3.86.19-1.26.33-2.45.92-3.49,1.74-1.04.82-1.91,1.84-2.56,3.02-.65,1.18-1.07,2.48-1.23,3.82-.16,1.35-.06,2.71.3,4.02.36,1.31.96,2.52,1.78,3.58s1.83,1.93,2.97,2.58l34.29,20.73c-2.01,5.24-3.42,10.71-4.17,16.3H9.73c-2.58,0-5.06,1.07-6.88,2.97-1.82,1.9-2.85,4.48-2.85,7.17s1.03,5.27,2.85,7.17c1.82,1.9,4.3,2.97,6.88,2.97h39.7c.76,5.59,2.16,11.06,4.17,16.3l-34.32,20.73c-1.15.64-2.16,1.52-2.97,2.58s-1.42,2.28-1.78,3.58c-.36,1.31-.46,2.67-.3,4.02.16,1.35.58,2.65,1.23,3.82.65,1.18,1.52,2.2,2.56,3.02s2.23,1.41,3.49,1.74c1.26.33,2.58.39,3.86.19,1.29-.21,2.52-.68,3.63-1.4l34.35-20.76c3.28,4.32,7.03,8.24,11.18,11.66l-19.88,35.8c-1.2,2.32-1.48,5.04-.79,7.57.69,2.54,2.3,4.69,4.49,6.01,2.19,1.32,4.79,1.7,7.24,1.05,2.45-.64,4.57-2.26,5.9-4.5l19.89-35.76c5.02,2.1,10.27,3.57,15.64,4.37v41.37c0,2.69,1.03,5.27,2.85,7.17,1.82,1.9,4.3,2.97,6.88,2.97s5.06-1.07,6.88-2.97,2.85-4.48,2.85-7.17v-41.37c5.36-.79,10.61-2.25,15.64-4.35l19.89,35.76c1.33,2.24,3.45,3.86,5.9,4.5,2.45.64,5.05.27,7.24-1.05,2.19-1.32,3.8-3.47,4.49-6.01.69-2.54.41-5.25-.79-7.57l-19.91-35.8c4.14-3.43,7.9-7.34,11.18-11.66l34.35,20.76c1.11.71,2.34,1.19,3.63,1.4,1.29.21,2.6.14,3.86-.19,1.26-.33,2.45-.92,3.49-1.74,1.04-.82,1.91-1.84,2.56-3.02.65-1.18,1.07-2.47,1.23-3.82.16-1.35.06-2.71-.3-4.02-.36-1.31-.96-2.52-1.78-3.58-.82-1.06-1.83-1.93-2.97-2.58l-34.32-20.73c2.03-5.24,3.44-10.72,4.2-16.32h39.7c2.58,0,5.05-1.07,6.88-2.97,1.82-1.9,2.85-4.48,2.85-7.17s-1.02-5.27-2.85-7.17c-1.82-1.9-4.3-2.97-6.88-2.97ZM116.76,172.38c-64.29-2.13-64.27-99.28,0-101.4,64.29,2.13,64.27,99.28,0,101.4Z"/></g></svg>