<?xml version="1.0" encoding="UTF-8"?><svg id="Capa_2" xmlns="http://www.w3.org/2000/svg" viewBox="0 0 243.36 230.69"><defs><style>.cls-1{stroke-width:0px;}</style></defs><g id="Capa_1-2"><path class="cls-1" d="M180.67,230.69c-3.28,0-5.97-.18-8.29-.35-12.14-.71-21.39-3.73-27.36-6.03-46.64-17.39-84.21-52.51-84.41-52.87-.19-.18-32.76-31.04-51.26-69.01C5.5,94.44.88,83.44.11,69.43c-.58-11,1.35-19.87,2.51-24.3,2.31-8.52,8.67-30.87,30.45-40.8C40.77.95,49.25-.65,58.11.24c7.52.53,14.26,5.5,16.96,12.42l18.31,48.43c2.51,6.74,1.16,14.19-3.47,19.69l-13.1,15.61c-.77.71-.77,2.13-.39,3.02,7.13,13.13,15.8,25.01,26.21,35.13.77.71,1.54,1.42,2.31,1.95,5.2,3.9,23.9,17.39,42.2,24.48l17.34-19.87c5.59-6.56,15.42-8.52,23.32-4.61l44.52,22.71c7.9,3.9,12.14,12.24,10.79,20.76-1.54,8.69-4.63,16.68-9.44,23.77-3.08,4.79-10.21,13.48-22.35,19.87-11.37,6.03-22.35,7.1-30.64,7.1ZM53.68,19.58c-4.05,0-7.71.71-11.18,2.31-13.1,6.03-17.73,22-19.27,28.21-.96,3.19-2.31,9.93-1.93,18.45.58,10.82,4.24,19.69,7.32,26.08,16.96,34.59,47.02,62.98,47.21,63.33.39.35,35.07,32.64,77.08,48.43,4.63,1.77,11.76,4.08,20.81,4.61,6.74.35,16.77,1.06,26.98-4.44,7.9-4.26,12.72-10.11,14.84-13.31,3.28-4.79,5.4-10.29,6.36-16.32,0-.35,0-.71-.19-.71l-42.2-21.47-15.22,17.92c-6.17,7.27-16.57,9.93-25.63,6.39-20.23-7.81-39.89-21.64-47.41-27.32-1.35-1.24-2.89-2.48-4.24-3.9-11.76-11.53-21.58-24.84-29.68-39.74-4.05-7.81-3.08-17.03,2.7-23.77l13.3-15.43-18.11-49.32h-1.54Z"/></g></svg>