<svg id="Capa_2" data-name="Capa 2" xmlns="http://www.w3.org/2000/svg" viewBox="0 0 243.36 160.61"><defs><style>.cls-1{fill:#fff;}</style></defs><g id="Capa_1-2" data-name="Capa 1-2"><path class="cls-1" d="M219.77.3H23.59A23.27,23.27,0,0,0,.18,23.3v114a23.26,23.26,0,0,0,23.41,23H219.77a23.26,23.26,0,0,0,23.41-23V23.3A23.27,23.27,0,0,0,219.77.3Zm-21,19.44L121.68,68.52,44.54,19.74H198.82ZM86.67,69.84l35,22.25,35-22.06,53.73,71H33.35ZM173.57,59l49.25-31.21-.2,96.07L173.57,59Zm-153,65.23V27.78L69.78,59Z"/></g></svg>