<svg id="Capa_2" data-name="Capa 2" xmlns="http://www.w3.org/2000/svg" viewBox="0 0 553.81 103.74"><defs><style>.cls-1{fill:#fff;}</style></defs><g id="Capa_1-2" data-name="Capa 1-2"><path class="cls-1" d="M23.45,90.89a.72.72,0,0,0,1.24,0L36,72.14a.7.7,0,0,0,0-.74l-3.94-6.65a.79.79,0,0,0-1.36,0L19.46,83.4a.7.7,0,0,0,0,.74l4,6.76Z"/><polyline class="cls-1" points="33.35 101.1 33.77 100.41 35.25 97.97 36.31 96.21 36.31 96.2 37.38 94.43 37.86 93.64 38.68 92.29"/><path class="cls-1" d="M38,77.3a.78.78,0,0,1,.68-.38h5.26a.71.71,0,0,1,.62.35l11,18.65a.73.73,0,0,1,0,.74l-4.07,6.72a.73.73,0,0,1-1.24,0L41.9,89.24a.79.79,0,0,0-1.36,0L32,103.3a.73.73,0,0,1-1.24,0l-4-6.75a.75.75,0,0,1,0-.74L38,77.32Z"/><path class="cls-1" d="M94.83,88.4a.72.72,0,0,1-.62,1.08H82.34a.73.73,0,0,0-.62,1.1L84.89,96a.77.77,0,0,1,0,.75l-4.07,6.71a.72.72,0,0,1-1.23,0L73.48,93.1a.71.71,0,0,0-1.23,0l-6.2,10.25a.71.71,0,0,1-1.23,0l-4-6.75a.73.73,0,0,1,0-.73l7-11.59a.73.73,0,0,0,0-.73l-6.16-10.4a.72.72,0,0,0-.62-.35H57.69a.72.72,0,0,0-.62,1.08l5.87,9.92a.77.77,0,0,1,0,.75l-4,6.61a.8.8,0,0,1-1.36,0l-10.67-18a.68.68,0,0,0-.62-.35H42.48a.79.79,0,0,1-.68-.39l-9.47-16a.73.73,0,0,0-1.26,0l-9.67,16a.72.72,0,0,1-.62.35H12.69a.73.73,0,0,1-.62-1.1l8.8-14.53a.73.73,0,0,0-.62-1.1H.8a.8.8,0,0,1-.8-.8V48.53a.8.8,0,0,1,.8-.8H20.28a.73.73,0,0,0,.62-1.1L12.1,32.12a.72.72,0,0,1,.62-1.1h8.09a.75.75,0,0,1,.62.35l9.67,16a.73.73,0,0,0,.64.35.75.75,0,0,0,.62-.35l9.47-16a.79.79,0,0,1,.68-.39h3.81a.69.69,0,0,0,.62-.35l10.67-18a.79.79,0,0,1,1.36,0l3.51,5.83.48.79A.73.73,0,0,1,63,20l-5.87,9.92a.73.73,0,0,0,.62,1.1h3.36a.75.75,0,0,0,.62-.35l6.16-10.4a.77.77,0,0,0,0-.75L60.84,8a.77.77,0,0,1,0-.75l4-6.75a.72.72,0,0,1,1.23,0l6.2,10.25a.72.72,0,0,0,1.23,0L79.6.35a.71.71,0,0,1,1.23,0L84.9,7.06a.73.73,0,0,1,0,.73l-3.17,5.39a.72.72,0,0,0,.62,1.08H94.22a.73.73,0,0,1,.62,1.1l-4.09,6.93a.72.72,0,0,1-.62.35H76.54a.72.72,0,0,0-.62.35l-9.5,16a.68.68,0,0,1-.62.35H47.2a.72.72,0,0,0-.62.35l-7,11.83a.61.61,0,0,0-.09.35.65.65,0,0,0,.09.35l7,11.81a.7.7,0,0,0,.62.35H65.8a.69.69,0,0,1,.62.35l9.5,16a.7.7,0,0,0,.62.35H90.13a.75.75,0,0,1,.62.35l4.09,6.93Z"/><polyline class="cls-1" points="59.84 89.61 60.71 88.18 62.46 85.28"/><path class="cls-1" d="M19.45,19.6a.75.75,0,0,0,0,.74L30.72,39a.8.8,0,0,0,1.36,0L36,32.34a.73.73,0,0,0,0-.74L24.68,12.85a.73.73,0,0,0-1.24,0l-4,6.76Z"/><polyline class="cls-1" points="33.35 2.64 33.77 3.33 35.25 5.77 36.31 7.53 36.31 7.53 37.38 9.31 37.86 10.1 38.68 11.45"/><path class="cls-1" d="M38,26.44a.78.78,0,0,0,.68.38h5.26a.71.71,0,0,0,.62-.35l11-18.65a.73.73,0,0,0,0-.74L51.51.36a.73.73,0,0,0-1.24,0L41.9,14.5a.79.79,0,0,1-1.36,0L32,.45a.73.73,0,0,0-1.24,0l-4,6.75a.75.75,0,0,0,0,.74L38,26.43Z"/><polyline class="cls-1" points="59.84 14.13 60.71 15.56 62.46 18.46"/><path class="cls-1" d="M136.8,83.31C119.71,83.31,107,70.12,107,53.44v-.17c0-16.51,12.45-30,30.29-30,10.95,0,17.51,3.65,22.9,9l-8.13,9.38C147.59,37.5,143,35,137.22,35c-9.79,0-16.84,8.13-16.84,18.09v.17c0,10,6.89,18.25,16.84,18.25,6.64,0,10.7-2.66,15.27-6.8l8.13,8.22c-6,6.39-12.61,10.37-23.81,10.37Z"/><path class="cls-1" d="M214.06,82.31l-5.31-13H184.19l-5.31,13h-13l24.89-58.5h11.78l24.89,58.5H214.06ZM196.47,39.16,188.75,58h15.43l-7.72-18.83Z"/><path class="cls-1" d="M257.88,82.73H246.6l-23.48-58.5h14.11l15.18,40.91L267.6,24.23h13.77l-23.48,58.5Z"/><path class="cls-1" d="M290.91,82.31V24.23h12.78V82.31Z"/><path class="cls-1" d="M361.44,82.31l-5.31-13H331.57l-5.31,13h-13l24.89-58.5H349.9l24.89,58.5H361.44ZM343.85,39.16,336.13,58h15.43l-7.72-18.83Z"/><path class="cls-1" d="M420.12,82.31V59H396.55V82.31H383.77V24.23h12.78v23h23.57v-23H432.9V82.31Z"/><path class="cls-1" d="M471.07,83.22c-15.6,0-25.14-8.71-25.14-25.81V24.23h12.78V57.09c0,9.46,4.73,14.35,12.53,14.35s12.53-4.73,12.53-13.94V24.23h12.78V57c0,17.59-9.87,26.22-25.47,26.22Z"/><path class="cls-1" d="M509.58,82.31V24.23h43.81V35.6H522.27V47.38h27.38V58.75H522.27V71H553.8V82.32H509.58Z"/></g></svg>