<svg id="Capa_2" data-name="Capa 2" xmlns="http://www.w3.org/2000/svg" viewBox="0 0 243.36 230.69"><defs><style>.cls-1{fill:#fff;}</style></defs><g id="Capa_1-2" data-name="Capa 1-2"><path class="cls-1" d="M180.58,230.34c-3.27,0-6-.18-8.27-.35A89.37,89.37,0,0,1,145,224C98.41,206.64,60.9,171.63,60.7,171.27c-.19-.18-32.71-31-51.19-68.8-3.84-8-8.45-18.93-9.22-32.9a80,80,0,0,1,2.5-24.23C5.1,36.85,11.45,14.57,33.2,4.67A49.54,49.54,0,0,1,58.2.59,19.88,19.88,0,0,1,75.14,13L93.42,61.26A19.66,19.66,0,0,1,90,80.89L76.88,96.45a2.86,2.86,0,0,0-.39,3,144.85,144.85,0,0,0,26.17,35,23.17,23.17,0,0,0,2.3,2c5.2,3.88,23.87,17.33,42.14,24.4L164.42,141a19.56,19.56,0,0,1,23.28-4.59l44.46,22.64a19.5,19.5,0,0,1,10.77,20.69,59.86,59.86,0,0,1-31.74,43.51c-11.35,6-22.32,7.08-30.6,7.08ZM53.78,19.87a26.12,26.12,0,0,0-11.16,2.3c-13.09,6-17.71,21.94-19.25,28.13a58.24,58.24,0,0,0-1.92,18.39c.58,10.79,4.23,19.63,7.31,26,16.93,34.49,46.95,62.79,47.14,63.14.39.35,35,32.54,77,48.28a68.86,68.86,0,0,0,20.78,4.6c6.73.35,16.75,1.06,26.94-4.43A42,42,0,0,0,215.4,193a39.27,39.27,0,0,0,6.35-16.27c0-.35,0-.71-.19-.71l-42.13-21.4-15.2,17.87a22.89,22.89,0,0,1-25.59,6.37c-20.21-7.79-39.84-21.58-47.35-27.24-1.34-1.24-2.88-2.47-4.23-3.89a166.07,166.07,0,0,1-29.64-39.62,21.07,21.07,0,0,1,2.7-23.7L73.4,69,55.32,19.87Z"/></g></svg>