<?xml version="1.0" encoding="utf-8"?>
<!-- Generator: Adobe Illustrator 25.3.0, SVG Export Plug-In . SVG Version: 6.00 Build 0)  -->
<svg version="1.1" id="Capa_1" xmlns="http://www.w3.org/2000/svg" xmlns:xlink="http://www.w3.org/1999/xlink" x="0px" y="0px"
	 viewBox="0 0 40 40" style="enable-background:new 0 0 40 40;" xml:space="preserve">
<style type="text/css">
	.st0{fill:#02776D;}
	.st1{fill:#E3D8C2;}
</style>
<circle class="st0" cx="20" cy="20" r="20"/>
<path class="st1" d="M25.4,30.9c-0.3,0-0.5,0-0.8,0c-0.9-0.1-1.7-0.3-2.5-0.6c-2.9-1.3-5.5-3.1-7.7-5.3c-1.9-2-3.5-4.4-4.7-6.9
	c-0.5-1-0.8-2.1-0.8-3.3c0-0.8,0-1.6,0.2-2.4c0.2-0.8,0.8-3.1,2.8-4.1c0.7-0.3,1.5-0.5,2.3-0.4c0.7,0.1,1.3,0.6,1.6,1.2l1.7,4.8
	c0.2,0.7,0.1,1.4-0.3,2l-1.2,1.6c-0.1,0.1-0.1,0.2,0,0.3c0.6,1.3,1.4,2.5,2.4,3.5l0.2,0.2c1.2,1,2.5,1.8,3.9,2.4l1.6-2
	c0.5-0.7,1.4-0.8,2.1-0.5l4,2.3c0.7,0.4,1.1,1.2,1,2.1l0,0c-0.1,0.8-0.4,1.6-0.8,2.4c-0.5,0.8-1.2,1.5-2.1,2
	C27.4,30.7,26.4,30.9,25.4,30.9z M13.8,9.9c-0.4,0-0.7,0.1-1,0.2c-1.2,0.6-1.6,2.2-1.8,2.8c-0.1,0.6-0.2,1.2-0.2,1.8
	c0.1,0.9,0.3,1.8,0.7,2.6c1.1,2.3,2.6,4.4,4.3,6.3c2.1,2,4.4,3.6,7.1,4.8c0.6,0.3,1.3,0.4,1.9,0.5c0.8,0.1,1.7,0,2.5-0.4
	c0.6-0.3,1-0.8,1.4-1.3c0.3-0.5,0.5-1.1,0.6-1.6v-0.1l-3.9-2.1l-1.4,1.8c-0.5,0.7-1.5,1-2.3,0.6c-1.6-0.7-3-1.6-4.3-2.7
	c-0.1-0.1-0.3-0.2-0.4-0.4c-1.1-1.2-2-2.5-2.7-4c-0.4-0.8-0.3-1.7,0.2-2.4l1.2-1.5l-1.7-4.9L13.8,9.9z"/>
</svg>
