<?xml version="1.0" encoding="utf-8"?>
<!-- Generator: Adobe Illustrator 25.3.0, SVG Export Plug-In . SVG Version: 6.00 Build 0)  -->
<svg version="1.1" id="Capa_1" xmlns="http://www.w3.org/2000/svg" xmlns:xlink="http://www.w3.org/1999/xlink" x="0px" y="0px"
	 viewBox="0 0 40 40" style="enable-background:new 0 0 40 40;" xml:space="preserve">
<style type="text/css">
	.st0{fill:#02776D;}
	.st1{fill:none;stroke:#E3D8C2;stroke-width:2;stroke-miterlimit:10;}
</style>
<circle class="st0" cx="20" cy="20" r="20"/>
<path class="st1" d="M27,13c-1.9-4.2-6.7-4.2-7-4.2c-0.3,0-5.1,0-7,4.2c-1,2.3-1,4.9,0,7.2l7,11.1l7-11.1C28,17.9,28,15.2,27,13z
	 M20.1,20.2c-2,0-3.6-1.6-3.6-3.6s1.6-3.6,3.6-3.6c2,0,3.6,1.6,3.6,3.6C23.7,18.6,22.1,20.2,20.1,20.2L20.1,20.2z"/>
</svg>
