<?xml version="1.0" encoding="utf-8"?>
<!-- Generator: Adobe Illustrator 25.3.0, SVG Export Plug-In . SVG Version: 6.00 Build 0)  -->
<svg version="1.1" id="Capa_1" xmlns="http://www.w3.org/2000/svg" xmlns:xlink="http://www.w3.org/1999/xlink" x="0px" y="0px"
	 viewBox="0 0 40 40" style="enable-background:new 0 0 40 40;" xml:space="preserve">
<style type="text/css">
	.st0{fill:#02776D;}
	.st1{fill:#E3D8C2;}
</style>
<circle class="st0" cx="20" cy="20" r="20"/>
<g>
	<path class="st1" d="M24.6,9.8h-9.3c-3.2,0-5.8,2.6-5.8,5.8c0,0,0,0,0,0v8.1c0,3.6,3,6.6,6.6,6.6H24c3.5,0,6.4-2.9,6.4-6.4v-8.3
		C30.4,12.4,27.8,9.8,24.6,9.8C24.6,9.8,24.6,9.8,24.6,9.8z M28.4,23.8c0,2.4-2,4.4-4.4,4.4h-7.9c-2.5,0-4.6-2-4.6-4.6v-8.1
		c0-2.1,1.7-3.8,3.8-3.8c0,0,0,0,0,0h9.3c2.1,0,3.8,1.7,3.8,3.8V23.8z"/>
	<path class="st1" d="M20,14.8c-2.9,0-5.2,2.3-5.2,5.2s2.3,5.2,5.2,5.2s5.2-2.3,5.2-5.2S22.9,14.8,20,14.8z M20,23.1
		c-1.7,0-3.2-1.4-3.2-3.2c0-1.7,1.4-3.2,3.2-3.2c1.7,0,3.2,1.4,3.2,3.2c0,0,0,0,0,0C23.2,21.7,21.7,23.2,20,23.1L20,23.1L20,23.1z"
		/>
	<path class="st1" d="M26.6,14.6c0,0.7-0.5,1.2-1.2,1.2c-0.7,0-1.2-0.5-1.2-1.2c0-0.7,0.5-1.2,1.2-1.2C26,13.4,26.6,14,26.6,14.6
		L26.6,14.6z"/>
</g>
</svg>
