<?xml version="1.0" encoding="utf-8"?>
<!-- Generator: Adobe Illustrator 25.3.0, SVG Export Plug-In . SVG Version: 6.00 Build 0)  -->
<svg version="1.1" id="Capa_1" xmlns="http://www.w3.org/2000/svg" xmlns:xlink="http://www.w3.org/1999/xlink" x="0px" y="0px"
	 viewBox="0 0 40 40" style="enable-background:new 0 0 40 40;" xml:space="preserve">
<style type="text/css">
	.st0{fill:#02776D;}
	.st1{fill:#E3D8C2;}
</style>
<circle class="st0" cx="20" cy="20" r="20"/>
<path class="st1" d="M29.8,11.3H10.2c-1.3,0.1-2.4,1.2-2.3,2.5v12.4c0,1.3,1,2.5,2.3,2.5h19.6c1.3-0.1,2.4-1.2,2.3-2.5V13.8
	C32.2,12.5,31.1,11.4,29.8,11.3z M27.7,13.4L20,18.7l-7.7-5.3L27.7,13.4z M16.5,18.9l3.5,2.4l3.5-2.4l5.4,7.7H11.2L16.5,18.9z
	 M25.2,17.7l4.9-3.4v10.5L25.2,17.7z M9.9,24.8V14.3l4.9,3.4L9.9,24.8z"/>
</svg>
